HIERARCHY
ROOT Hips
{
	OFFSET -14.64140 90.27770 -84.91600
	CHANNELS 6 Xposition Yposition Zposition Zrotation Xrotation Yrotation
	JOINT Spine
	{
		OFFSET 0.00000 13.20850 -1.60436
		CHANNELS 3 Zrotation Xrotation Yrotation
		JOINT Spine1
		{
			OFFSET 0.00000 8.61716 0.00000
			CHANNELS 3 Zrotation Xrotation Yrotation
			JOINT Spine2
			{
				OFFSET 0.00000 8.61717 0.00000
				CHANNELS 3 Zrotation Xrotation Yrotation
				JOINT Spine3
				{
					OFFSET 0.00000 8.61717 0.00000
					CHANNELS 3 Zrotation Xrotation Yrotation
					JOINT Neck
					{
						OFFSET 0.00000 11.07920 1.10792
						CHANNELS 3 Zrotation Xrotation Yrotation
						JOINT Neck1
						{
							OFFSET 0.00000 7.08032 0.00000
							CHANNELS 3 Zrotation Xrotation Yrotation
							JOINT Head
							{
								OFFSET 0.00000 7.08031 0.00000
								CHANNELS 3 Zrotation Xrotation Yrotation
								End site
								{
									OFFSET 0.00000 0.00000 0.00000
								}
							}
						}
					}
					JOINT RightShoulder
					{
						OFFSET -0.01000 7.91373 5.19711
						CHANNELS 3 Zrotation Xrotation Yrotation
						JOINT RightArm
						{
							OFFSET -18.41580 0.00000 0.00000
							CHANNELS 3 Zrotation Xrotation Yrotation
							JOINT RightForeArm
							{
								OFFSET -29.11090 0.00000 0.00000
								CHANNELS 3 Zrotation Xrotation Yrotation
								JOINT RightHand
								{
									OFFSET -24.65040 0.00000 0.00000
									CHANNELS 3 Zrotation Xrotation Yrotation
									JOINT RightHandThumb1
									{
										OFFSET -5.35114 -0.85590 3.97906
										CHANNELS 3 Zrotation Xrotation Yrotation
										JOINT RightHandThumb2
										{
											OFFSET -4.52789 0.00000 0.00000
											CHANNELS 3 Zrotation Xrotation Yrotation
											JOINT RightHandThumb3
											{
												OFFSET -2.46976 0.00000 0.00000
												CHANNELS 3 Zrotation Xrotation Yrotation
												End site
												{
													OFFSET 0.00000 0.00000 0.00000
												}
											}
										}
									}
									JOINT RightHandIndex1
									{
										OFFSET -14.26970 0.00000 2.88139
										CHANNELS 3 Zrotation Xrotation Yrotation
										JOINT RightHandIndex2
										{
											OFFSET -5.48836 0.00000 0.00000
											CHANNELS 3 Zrotation Xrotation Yrotation
											JOINT RightHandIndex3
											{
												OFFSET -3.01859 0.00000 0.00000
												CHANNELS 3 Zrotation Xrotation Yrotation
												End site
												{
													OFFSET 0.00000 0.00000 0.00000
												}
											}
										}
									}
									JOINT RightHandMiddle1
									{
										OFFSET -14.26970 0.00000 -0.09147
										CHANNELS 3 Zrotation Xrotation Yrotation
										JOINT RightHandMiddle2
										{
											OFFSET -6.17441 0.00000 0.00000
											CHANNELS 3 Zrotation Xrotation Yrotation
											JOINT RightHandMiddle3
											{
												OFFSET -3.56743 0.00000 0.00000
												CHANNELS 3 Zrotation Xrotation Yrotation
												End site
												{
													OFFSET 0.00000 0.00000 0.00000
												}
											}
										}
									}
									JOINT RightHandRing1
									{
										OFFSET -12.69180 0.00000 -3.06433
										CHANNELS 3 Zrotation Xrotation Yrotation
										JOINT RightHandRing2
										{
											OFFSET -5.62556 0.00000 0.00000
											CHANNELS 3 Zrotation Xrotation Yrotation
											JOINT RightHandRing3
											{
												OFFSET -3.56744 0.00000 0.00000
												CHANNELS 3 Zrotation Xrotation Yrotation
												End site
												{
													OFFSET 0.00000 0.00000 0.00000
												}
											}
										}
									}
									JOINT RightHandPinky1
									{
										OFFSET -11.11390 0.00000 -6.03719
										CHANNELS 3 Zrotation Xrotation Yrotation
										JOINT RightHandPinky2
										{
											OFFSET -4.52789 0.00000 0.00000
											CHANNELS 3 Zrotation Xrotation Yrotation
											JOINT RightHandPinky3
											{
												OFFSET -2.46976 0.00000 0.00000
												CHANNELS 3 Zrotation Xrotation Yrotation
												End site
												{
													OFFSET 0.00000 0.00000 0.00000
												}
											}
										}
									}
								}
							}
						}
					}
					JOINT LeftShoulder
					{
						OFFSET 0.01000 7.91373 5.19711
						CHANNELS 3 Zrotation Xrotation Yrotation
						JOINT LeftArm
						{
							OFFSET 18.41580 0.00000 0.00000
							CHANNELS 3 Zrotation Xrotation Yrotation
							JOINT LeftForeArm
							{
								OFFSET 29.11090 0.00000 0.00000
								CHANNELS 3 Zrotation Xrotation Yrotation
								JOINT LeftHand
								{
									OFFSET 24.65040 0.00000 0.00000
									CHANNELS 3 Zrotation Xrotation Yrotation
									JOINT LeftHandThumb1
									{
										OFFSET 5.35114 -0.85590 3.97906
										CHANNELS 3 Zrotation Xrotation Yrotation
										JOINT LeftHandThumb2
										{
											OFFSET 4.52789 0.00000 0.00000
											CHANNELS 3 Zrotation Xrotation Yrotation
											JOINT LeftHandThumb3
											{
												OFFSET 2.46977 0.00000 0.00000
												CHANNELS 3 Zrotation Xrotation Yrotation
												End site
												{
													OFFSET 0.00000 0.00000 0.00000
												}
											}
										}
									}
									JOINT LeftHandIndex1
									{
										OFFSET 14.26970 0.00000 2.88139
										CHANNELS 3 Zrotation Xrotation Yrotation
										JOINT LeftHandIndex2
										{
											OFFSET 5.48836 0.00000 0.00000
											CHANNELS 3 Zrotation Xrotation Yrotation
											JOINT LeftHandIndex3
											{
												OFFSET 3.01859 0.00000 0.00000
												CHANNELS 3 Zrotation Xrotation Yrotation
												End site
												{
													OFFSET 0.00000 0.00000 0.00000
												}
											}
										}
									}
									JOINT LeftHandMiddle1
									{
										OFFSET 14.26970 0.00000 -0.09147
										CHANNELS 3 Zrotation Xrotation Yrotation
										JOINT LeftHandMiddle2
										{
											OFFSET 6.17440 0.00000 0.00000
											CHANNELS 3 Zrotation Xrotation Yrotation
											JOINT LeftHandMiddle3
											{
												OFFSET 3.56744 0.00000 0.00000
												CHANNELS 3 Zrotation Xrotation Yrotation
												End site
												{
													OFFSET 0.00000 0.00000 0.00000
												}
											}
										}
									}
									JOINT LeftHandRing1
									{
										OFFSET 12.69180 0.00000 -3.06433
										CHANNELS 3 Zrotation Xrotation Yrotation
										JOINT LeftHandRing2
										{
											OFFSET 5.62556 0.00000 0.00000
											CHANNELS 3 Zrotation Xrotation Yrotation
											JOINT LeftHandRing3
											{
												OFFSET 3.56744 0.00000 0.00000
												CHANNELS 3 Zrotation Xrotation Yrotation
												End site
												{
													OFFSET 0.00000 0.00000 0.00000
												}
											}
										}
									}
									JOINT LeftHandPinky1
									{
										OFFSET 11.11390 0.00000 -6.03719
										CHANNELS 3 Zrotation Xrotation Yrotation
										JOINT LeftHandPinky2
										{
											OFFSET 4.52789 0.00000 0.00000
											CHANNELS 3 Zrotation Xrotation Yrotation
											JOINT LeftHandPinky3
											{
												OFFSET 2.46976 0.00000 0.00000
												CHANNELS 3 Zrotation Xrotation Yrotation
												End site
												{
													OFFSET 0.00000 0.00000 0.00000
												}
											}
										}
									}
								}
							}
						}
					}
					JOINT pCube4
					{
						OFFSET 0.00000 10.91090 1.10792
						CHANNELS 3 Zrotation Xrotation Yrotation
						End site
						{
							OFFSET 0.00000 0.00000 0.00000
						}
					}
				}
			}
		}
	}
	JOINT RightUpLeg
	{
		OFFSET -9.98441 0.00000 0.00000
		CHANNELS 3 Zrotation Xrotation Yrotation
		JOINT RightLeg
		{
			OFFSET 0.00000 -42.11790 0.00000
			CHANNELS 3 Zrotation Xrotation Yrotation
			JOINT RightFoot
			{
				OFFSET 0.00000 -45.00020 -0.00001
				CHANNELS 3 Zrotation Xrotation Yrotation
				JOINT RightForeFoot
				{
					OFFSET 0.00000 -3.74820 0.00000
					CHANNELS 3 Zrotation Xrotation Yrotation
					JOINT RightToeBase
					{
						OFFSET 0.00000 0.06325 14.43120
						CHANNELS 3 Zrotation Xrotation Yrotation
						End site
						{
							OFFSET 0.00000 0.00000 0.00000
						}
					}
				}
			}
		}
	}
	JOINT LeftUpLeg
	{
		OFFSET 9.98441 0.00000 0.00000
		CHANNELS 3 Zrotation Xrotation Yrotation
		JOINT LeftLeg
		{
			OFFSET 0.00000 -42.11800 0.00000
			CHANNELS 3 Zrotation Xrotation Yrotation
			JOINT LeftFoot
			{
				OFFSET 0.00000 -45.00070 0.00000
				CHANNELS 3 Zrotation Xrotation Yrotation
				JOINT LeftForeFoot
				{
					OFFSET 0.00000 -3.74824 0.00000
					CHANNELS 3 Zrotation Xrotation Yrotation
					JOINT LeftToeBase
					{
						OFFSET 0.00000 0.06325 14.43110
						CHANNELS 3 Zrotation Xrotation Yrotation
						End site
						{
							OFFSET 0.00000 0.00000 0.00000
						}
					}
				}
			}
		}
	}
}
MOTION
Frames: 4
Frame Time: 0.050000
0.001897481135744988 0.019762270829518345 0.04116892232245961 -0.014624259749012887 0.04434142023988896 0.017223800887956203 1.973418213218128 4.528746989884139 -1.443856852288079 -0.6649963114675324 3.8873916854136934 0.36118228092718024 -0.7489313623678686 -1.3047928918426488 1.3975881893377027 -0.625541171059376 -0.20424468010314506 -0.28474313228139686 0.02632488665478023 13.944132717729483 -1.2190756233410636 0.1151694824965777 -0.6132905831408115 -4.544259230862979 0.6078784826338451 -16.76374296894856 -0.33351034497588106 -7.399024278422789 2.8204917266173553 -14.824478986000768 74.50797206838493 11.062168802861336 19.598965297227984 6.887182226819464 -3.936617839998629 86.7518851323232 21.581755307837344 -0.5980696573514726 -4.542233554193004 4.5014729346298035 -0.16956269868627008 -1.5596518349767376 -0.010837367544521796 0.016022564604642235 -56.21369134096736 0.006606166297973916 0.04199745757294768 -56.227917192801755 -38.80497678284153 -0.02655538498532354 -0.04291217037046022 -0.030763284585437305 0.03604824984095627 0.02055268689929303 -0.02699002369827461 0.024960410242919447 -0.016636934187424308 -36.64912006304232 -0.012714410675449348 0.04413756845332483 -0.0022712641272136192 0.010009906653201991 -0.002575537451155991 0.006521350639122852 -0.025668260502701958 0.04005514626603481 -19.71458204107621 0.006177669990342029 -0.039517327591126944 -0.0050891960333045595 -0.03230468065921499 -0.011286598165745369 -0.009851007047408647 -0.03843995483836337 0.04439908874364337 24.02058071343848 -0.030578051197205136 0.012309767187283556 28.835241925696824 0.016958648078690287 -0.022919409570816434 28.898559269725247 0.002339554507937975 -0.004528827138375459 7.446598485696542 1.9910663139086942 13.633590252628045 -72.3434918781797 21.59235294990952 -14.928676484922864 -7.445897917608962 1.7839883739508358 -72.04874222404685 -20.664204320044156 4.128840996000883 -3.159855366067256 -0.49371425008243885 0.07894368268114031 -8.118705053793327 0.008725162159769331 -0.038120269520128966 44.59074687737199 -0.017302350731249087 0.016325069341227048 44.59449142780028 12.480806634629124 -0.03655358843049135 0.04285991971267531 0.035729928205646556 -0.028118706982954704 0.018573907978912434 0.018339275849076346 0.020057617767099647 -0.025129183222987343 11.05854699856532 0.0009022927304394656 -0.039786335930736355 0.0031249753150652455 -0.0016137901004372765 -0.0018134818117188061 -0.04481419441401626 0.03203402629632736 -0.007458254352754405 4.77081239941005 -0.022326163132941525 0.007386389686151739 0.002664042498344151 0.01679555631941502 0.03204422183096813 -0.04461739840612499 -0.040540220077499176 0.04428509517821667 -5.644085732530707 0.037492850651083064 -0.0016799198527371595 -6.715733321214134 0.046213918122032994 -0.037978655613714184 -6.724572449288168 -0.04067616758505197 0.005366027305860064 0.00012881995960008905 0.008701009464179019 -0.018495904489948076 8.050749430277959 3.492385154041859 -19.257625833462946 0.03414536896145928 10.407018812859473 0.007762476794317474 -5.668904317336726 -15.662347890120499 3.1809876000659494 0.00925750482434429 0.0033710450293643036 0.04700295100585029 0.010700625127992799 4.674975159200258 0.023300122623597125 12.432893750766345 -8.209008993856527 6.9110182107054 -0.022420280175167857 46.39401776211023 -0.005422817075092911 -4.330796881757428 -14.708889232361626 -3.786575205918418 -0.022334925555127134 0.01326633901524925 0.04013305987909473 0.03893075800152553 -10.737497595650266 -0.02895557463197837 
0.03692124224580958 -0.010684400883775716 -0.0494627288135133 -0.005587865218231064 0.04453064601352369 0.019134846244859397 2.089398224166173 4.6377408351039415 -1.4713973011262973 -0.588093910630493 3.8862245227004397 0.39388677065237687 -0.7377838314620272 -1.2227876773390467 1.4275051138564363 -0.5730442216665309 -0.17249878545543978 -0.3359774213138644 0.07569714532320555 13.776935830920667 -1.4102035745117354 0.15771269043813613 -0.5193453689551534 -4.99009454962618 0.6586259734286419 -16.615927447699328 -0.43696831057920277 -7.003682351048165 2.665267135271351 -14.955617106968338 73.88556311883407 12.203415090537323 18.115363125296554 5.895316240279211 -3.9089666654349835 87.56442242849555 21.745384222890788 -0.6194700703714701 -4.717672707794464 4.48645005888322 -0.11857637502996461 -1.6428658963208558 0.013766108374142135 -0.011454087237560742 -56.25389726711399 -0.02831215613155222 0.047639535476359005 -56.19956494957396 -38.77144202349329 0.02097650168645682 0.014345987824461792 0.024697090574449673 0.014216897995105117 0.036559358672205 0.021425035920801652 0.04494038009766478 0.030100826123688952 -36.741538724711724 -0.00919120467984144 0.025059651268174755 -0.029380259170630404 0.00835748043136337 0.010528064460027105 0.032110328656322976 -0.012191378846488733 0.01799508606839432 -19.726525184760273 -0.025629939997436492 0.014151887525553531 0.011759414663440828 0.021105102031360845 0.024632979176601306 0.0427689323539115 0.010181313429731935 -0.023192204657335968 24.062231716637555 -0.01757976521803803 -0.040227099693110495 28.865598418271503 -0.004956633183280039 -0.02951136914393247 28.89004418959961 0.0309418408819641 -0.014352781742138585 6.908534871115725 1.9282929499057335 13.745364562464404 -72.11526754661514 22.108384635150877 -13.75919238970203 -6.815305642093359 2.5341785352308484 -71.37911088363421 -20.817908688048735 4.273713974855842 -3.187996831755221 -0.4424897949002771 0.08933480703589067 -8.0804813629791 0.01322651072372494 -0.033279472563861115 44.562287549229744 0.04175752366258267 0.048912194797725315 44.56945931341231 12.463664751394655 0.03231501725045608 -0.010740132532028643 -0.008324108312897859 0.022696716580512182 0.006585664496274169 0.0012592513045466534 -0.030436245107326017 -0.009006045753977492 11.143470928087678 -0.012317964849851473 -0.005236427972936758 -0.04560054246410529 -0.02692952257691855 0.021423860650467617 0.029779649243889407 -0.009940133682821126 -0.01643013583700543 4.781602402171054 -0.020392984407705716 0.044371768813744224 0.02091991221324577 0.027732949110949506 0.03461688934812714 0.011966835972257235 0.012719541012515162 -0.009250549503541924 -5.637865528805808 -0.03169388169052642 0.010021425478167216 -6.755033961079671 -0.01906609013285105 -0.04077729760804081 -6.749569477801242 -0.032306474226926195 6.692571656078295e-05 0.02272044200608312 0.037837844605009135 -0.0059448097541599165 8.094318517712077 3.4733874135368317 -19.256067200723493 -0.03756736213521185 10.381238266659931 -6.966993862318749e-05 -5.610512191410619 -15.674063780630597 3.1699607628666833 0.04937447037509525 -0.04324445360749944 0.002667567758468034 0.034992678328254465 4.72179570114808 -0.042059103645058715 12.446316247978597 -8.255651976572215 6.896262952265487 -0.028448221924891846 46.38756570363594 -0.031170487785588417 -4.373311726637633 -14.706456831572813 -3.8070986583252697 -0.027903410315076916 -0.03134772112202984 0.020697827475074225 -0.04165401021799049 -10.78401877623937 0.022056636096217715 
0.048048926235969014 -0.00040561732040610057 -0.010193331405294838 0.017259315181973333 0.033259735276524864 -0.03604403592292605 2.1362614842176524 4.6641647144494245 -1.468475117994269 -0.6759398616718918 3.858516628267308 0.3806157055312177 -0.71408378991622 -1.2365810963273012 1.414572606415886 -0.44324267874526463 -0.15983055911030417 -0.262528363373064 0.09707518524098308 13.657087425533724 -1.5354092703659914 0.10791875291752559 -0.4551961612092261 -5.325238555104486 0.7097648863958743 -16.420355544500058 -0.40082805337346866 -6.59627765806163 2.611652922699841 -15.08721171322237 73.32483718461566 13.299001327177567 15.952844648039159 5.010998752725861 -3.0999179096678042 85.98733786993925 22.288443896234682 -0.5246539394681909 -4.870305793142177 4.534541673950718 -0.10944912151376857 -1.6250611361887737 -0.027018155390237327 0.018049555721957013 -56.26930830904227 -0.006218835126621563 0.0027045041835969215 -56.21703047597958 -38.794188257147944 -0.03098147995379465 -0.028285682071673913 -0.0023615304541765563 -0.004293672829250894 -0.04565828657838605 -0.015048893541808831 -0.024814670232374575 0.027044155896320032 -36.64401335653885 0.029308014715040104 -0.03325232021006437 -0.012659370982370823 -0.0286279378201082 -0.002814910265512737 0.022981588280490784 -0.03526396369552204 -0.012341436599582829 -19.75296776520582 0.011545744539903943 0.029873039016432488 -0.0016760777471289086 -0.018050582243132548 -0.03697715065724567 0.011188862077670388 -0.022354167200204573 0.01525003825839861 24.069587434209822 0.014907986753925163 0.0008329706622221123 28.862462464092307 -0.006449397681677633 -0.03953540671205914 28.873481598998215 0.004045248300259757 0.02658425813242462 6.551447559024625 1.825518303271452 13.808303419053548 -71.78628534852945 22.355918233078672 -12.648589244480153 -5.50738141970932 3.264384903225359 -69.35059144633195 -21.03322907960294 4.7029239283312245 -3.307123470501029 -0.43819702755808404 0.03323305762870123 -8.119708471765213 0.027214287997288013 0.044180653315543834 44.59398806850856 0.02829371985319275 0.007145780764375525 44.56483243746112 12.439914246470368 0.039529933080849164 -0.01603654194636787 0.04407153215276948 -0.04388465933413575 -0.024336098745221593 -0.008297786087638268 -0.02955122813881018 0.007228262933490796 11.153992085856435 0.033225004175842676 -0.023739724563112796 0.049011397049486274 -0.013542116916434845 0.01729701815942182 -0.002826975771621071 -0.03702247871761276 0.020416717986434827 4.75599537066144 -0.027556407890661376 0.04057822292489162 0.037395247596934945 0.011757813936204717 -0.019912099402059125 0.015944395869939506 0.0076217918951112995 -0.015611612723965414 -5.629293715747957 -0.032011986837474866 -0.015062373609224487 -6.732657367397774 0.007599067936832665 -0.026889547685538157 -6.734962720140942 0.009310654902202746 0.01650193651910541 -0.014502283786785634 -0.01719468326169291 -0.020528214973377885 8.054591685688894 3.4966700872298393 -19.25285057192175 0.0065484238067823166 10.425684412451675 0.027413521494376564 -5.585802814508441 -15.683400315339014 3.16390412952328 -0.0052439585778764975 -0.016256559046530523 -0.028551677468870825 -0.026422210943773755 4.649885264431764 0.038943034920516977 12.44352951664788 -8.223658104375183 6.871210058377251 0.030536973855323734 46.37821937785054 -0.03166538586267753 -4.366999962776395 -14.780793203721984 -3.8479074615240183 0.04184709458088973 -0.01732844529318877 0.029452313739280957 0.0058824493226305 -10.768609786423951 -0.011232266749982038 
-0.03690418492699978 -0.03442608439345897 -0.004793625501609507 -0.03773223153885999 0.0006795385485593826 -0.00036827043713996206 2.1265958789456714 4.617394793836077 -1.4452505023964741 -0.6442001737247458 3.8083161756133577 0.3562347301050743 -0.7111168206256522 -1.188061263179345 1.293901756912854 -0.428351230576638 -0.1458564086809412 -0.35653466566519304 0.07494375558490163 13.491503530257638 -1.6723153818490781 0.18309787964636715 -0.42207780681109797 -5.499413260656292 0.7837896196252027 -16.159129553514855 -0.46156258532614985 -6.146286737561706 2.502256514805237 -15.109629850296667 72.84376716748766 14.53196440265916 13.228883176484999 4.12351073030435 -1.5445250679024802 82.93649007947174 23.501454716293658 -0.5447624686668775 -5.016649504295231 4.5444027171134005 -0.11373648318866884 -1.63710615537552 0.02438028525406487 -0.021289807515996347 -56.247655623593616 0.034719103223545295 0.04776196367704047 -56.19029506512753 -38.781910251623195 0.023861905980672556 0.02596910391485132 0.02468363704090451 0.02408287378462103 -0.02484015337620491 0.04684211979608967 0.006460584003953765 0.029354527180695113 -36.65364175555623 0.03040333718665089 0.009016492962047712 -0.0017431247131258262 -0.03920771133326873 -0.0058743283022474726 0.0447262211299683 0.026282833678156082 -0.020638161464879682 -19.754453284513122 -0.006923594017264179 0.00875161060589754 -0.03243538322550348 0.027201792574059358 -0.022302031468010273 -0.021535785935142455 -0.03589554072690171 0.0046047811357434725 24.07023262980124 0.022598455073680215 0.0427732012250378 28.86193970234481 0.04067022760675132 0.037127436744797945 28.900344369031224 -0.03756539596612383 -0.020538755434723988 6.148180790055463 1.8010040654089183 13.903311467161785 -71.50917239216254 22.595504464390192 -11.681543739762022 -4.149016444740783 3.7411692313371554 -67.58637389391717 -21.286952037336295 5.186821763424107 -3.5746417239586616 -0.49997593491376335 0.05369206779376661 -8.095826940812977 0.025414540317732544 -0.008663167183460836 44.616505628090955 -0.020801894476122077 0.04566457205027832 44.55778118286828 12.488079210373918 0.027687670887037528 -0.015885455285076545 0.03300151788027047 -0.012843181111055731 -0.0010268616712417094 -0.011226116993782826 0.010391509666446785 0.007316564086377372 11.105062729113957 0.049020273070005733 -0.020603601464408226 -0.011364287990326887 -0.007171429251154882 -0.004129886950636131 -0.0355306392906068 -0.005222762152317114 0.03897561601545221 4.7923762841915325 -0.028002297239465346 0.01563100229086477 -0.023845896716430153 -0.019657794192909896 -0.002891864115178926 -0.01917618127077851 -0.02308645142020616 -0.02385889919801886 -5.6123109457695906 0.03783079220360687 -0.026926487816099787 -6.680536856019375 -0.04396602338594317 0.021347282376919442 -6.703968603338162 0.01355592265382124 0.035726701251901735 0.033955760737575995 0.040240400349136736 0.03946713521165713 8.035139602392098 3.5380789462347964 -19.23195015987802 -9.977942426986868e-05 10.359716093879772 -0.03467604186708363 -5.658972582048666 -15.663716592198107 3.1676486073731063 0.049784699377479265 -0.04648499635418325 -0.009580852566895377 -0.02382591413726226 4.695012244617315 -0.04440986385703931 12.48752796622018 -8.214135155401443 6.840808705128821 -0.007857231187301722 46.39939795640348 -0.040024932306642606 -4.280029097899106 -14.711582611156503 -3.84421470950866 -0.03253731511559967 -0.02231241111740633 0.044944144583943184 0.016911621820157815 -10.706159599328233 -0.03448738626714955 
